# xmcd CD database file
#
# Track frame offsets:
#	150
#	18034
#	33984
#	56197
#	71897
#	87508
#	104948
#	119788
#	138877
#	164432
#	181204
#	201127
#	227263
#	243881
#	258367
#	270068
#
# Disc length: 3757 seconds
#
# Revision: 0
# Processed by: cddbd v1.5.2PL0 Copyright (c) Steve Scherf et al.
# Submitted via: CDex 1.50beta10
#
DISCID=dc0eab10
DTITLE=The Crawford Jazz Band - It's About Time
DYEAR=2006
DGENRE=Jazz
TTITLE0=Lullaby of Birdland
TTITLE1=Honeysuckle Rose
TTITLE2=Straighten-up and Fly Right
TTITLE3=A Nightengale Sang in Berkley Square
TTITLE4=I Love Being Here with You
TTITLE5=Makin' Whopee
TTITLE6=S'Wonderful
TTITLE7=I Don't Know Enough About You
TTITLE8=Skylark
TTITLE9=Route 66
TTITLE10=Is You Is or Is You Ain't My Baby?
TTITLE11=The Way You Look Tonight
TTITLE12=They Can't Take That Away From Me
TTITLE13=I'm Beginning to See the Light
TTITLE14=Kansas City
TTITLE15=Mean Woman Blues
EXTD=YEAR: 2006
EXTT0=
EXTT1=
EXTT2=
EXTT3=
EXTT4=
EXTT5=
EXTT6=
EXTT7=
EXTT8=
EXTT9=
EXTT10=
EXTT11=
EXTT12=
EXTT13=
EXTT14=
EXTT15=
PLAYORDER=
